<svg width="24" height="24" viewBox="0 0 24 24" fill="none" xmlns="http://www.w3.org/2000/svg">
<g id="call-alt">
<path id="Vector" d="M19.17 22.035C19.1 22.035 19.021 22.031 18.942 22.024C15.833 21.677 13.025 20.63 10.601 19.044L10.674 19.089C8.35401 17.594 6.43801 15.676 4.98901 13.43L4.94401 13.356C3.40201 11.002 2.35601 8.18995 2.02201 5.16395L2.01401 5.07895C2.00601 4.99895 2.00101 4.90495 2.00101 4.81095C2.00101 3.34795 3.11901 2.14695 4.54701 2.01295L4.55801 2.01195C4.64101 2.00395 4.72501 1.99995 4.80901 1.99995H7.55201C8.97901 2.00395 10.156 3.07195 10.33 4.45195L10.331 4.46595C10.472 5.34795 10.678 6.12995 10.95 6.87995L10.921 6.78895L10.952 6.88695C11.036 7.14095 11.084 7.43395 11.084 7.73895C11.084 8.50895 10.774 9.20695 10.271 9.71395L9.67101 10.313C10.726 11.932 12.068 13.273 13.635 14.297L13.687 14.329L14.282 13.734C14.791 13.23 15.491 12.919 16.264 12.919C16.617 12.919 16.954 12.984 17.265 13.102L17.246 13.096C17.918 13.356 18.703 13.559 19.517 13.671L19.573 13.677C20.951 13.872 22 15.045 22 16.462C22 16.481 22 16.5 21.999 16.519V16.516V19.22C21.999 19.222 21.999 19.224 21.999 19.225C21.999 20.773 20.748 22.029 19.201 22.037L19.17 22.035ZM7.54201 3.99995H4.80901C4.56101 4.00595 4.34101 4.11695 4.19001 4.28995L4.18901 4.29095C4.07201 4.42995 4.00101 4.61095 4.00101 4.80795C4.00101 4.83395 4.00201 4.85995 4.00501 4.88595V4.88295C4.31301 7.66195 5.24801 10.173 6.66601 12.34L6.62601 12.275C7.96301 14.352 9.67801 16.068 11.688 17.366L11.754 17.406C13.853 18.784 16.36 19.721 19.059 20.027L19.137 20.034C19.149 20.035 19.163 20.035 19.178 20.035C19.629 20.035 19.996 19.672 20.002 19.222V16.478C20.002 16.472 20.002 16.465 20.002 16.458C20.002 16.051 19.701 15.714 19.31 15.657L19.306 15.656C18.276 15.516 17.346 15.275 16.463 14.938L16.55 14.967C16.465 14.933 16.366 14.914 16.263 14.914C16.043 14.914 15.843 15.003 15.698 15.147L14.55 16.295C14.369 16.476 14.119 16.588 13.843 16.588C13.661 16.588 13.491 16.54 13.344 16.455L13.349 16.458C10.914 15.056 8.94601 13.088 7.58401 10.728L7.54401 10.653C7.46201 10.511 7.41301 10.34 7.41301 10.159C7.41301 9.88295 7.52501 9.63295 7.70601 9.45195L8.85501 8.30295C8.99801 8.15695 9.08601 7.95795 9.08601 7.73695C9.08601 7.64895 9.07201 7.56495 9.04601 7.48595L9.04801 7.49195L9.01801 7.39695C8.73801 6.63295 8.50501 5.72795 8.36001 4.79395L8.34901 4.71095C8.29701 4.30795 7.95701 3.99995 7.54401 3.99995H7.54201ZM17.85 10.718C17.366 10.717 16.963 10.373 16.871 9.91595L16.87 9.90995C16.59 8.49295 15.491 7.39395 14.097 7.11795L14.075 7.11395C13.611 7.02095 13.266 6.61695 13.266 6.13195C13.266 5.57995 13.714 5.13195 14.266 5.13195C14.334 5.13195 14.4 5.13895 14.463 5.15095L14.457 5.14995C16.675 5.58795 18.395 7.30795 18.827 9.49095L18.833 9.52595C18.845 9.58395 18.851 9.64995 18.851 9.71695C18.851 10.269 18.403 10.717 17.851 10.717L17.85 10.718ZM21.481 10.708C20.968 10.707 20.546 10.321 20.488 9.82395V9.81895C20.117 6.48295 17.492 3.86095 14.187 3.49695L14.155 3.49395C13.652 3.43595 13.265 3.01295 13.265 2.49895C13.265 2.46095 13.267 2.42295 13.271 2.38595V2.39095C13.335 1.88795 13.76 1.50195 14.276 1.50195C14.311 1.50195 14.346 1.50395 14.38 1.50695H14.376C18.644 1.97595 22.002 5.33095 22.473 9.55695L22.477 9.59795C22.481 9.63095 22.483 9.66995 22.483 9.70895C22.483 10.222 22.097 10.645 21.599 10.703H21.594C21.561 10.707 21.524 10.709 21.486 10.709C21.485 10.709 21.483 10.709 21.482 10.709L21.481 10.708Z" fill="#BD1F17"/>
</g>
</svg>
