<svg width="30" height="31" viewBox="0 0 30 31" fill="none" xmlns="http://www.w3.org/2000/svg">
<g id="clock">
<path id="Vector" d="M15 27.2212C8.78625 27.2212 3.75 22.1849 3.75 15.9712C3.75 9.75744 8.78625 4.72119 15 4.72119C21.2138 4.72119 26.25 9.75744 26.25 15.9712C26.2425 22.1812 21.21 27.2137 15.0013 27.2212H15ZM15 7.22119C10.1675 7.22119 6.25 11.1387 6.25 15.9712C6.25 20.8037 10.1675 24.7212 15 24.7212C19.8325 24.7212 23.75 20.8037 23.75 15.9712C23.7437 11.1412 19.83 7.22744 15 7.22119ZM20.0212 17.9362C20.08 17.7962 20.1138 17.6337 20.1138 17.4624C20.1138 16.9424 19.7962 16.4974 19.345 16.3087L19.3363 16.3062L16.1363 14.9962V9.96369C16.1363 9.27369 15.5763 8.71369 14.8863 8.71369C14.1963 8.71369 13.6363 9.27369 13.6363 9.96369V15.8362C13.6363 16.3562 13.9538 16.8012 14.405 16.9899L14.4137 16.9924L18.3913 18.6199C18.5312 18.6799 18.695 18.7137 18.8663 18.7137C19.3863 18.7137 19.8312 18.3962 20.0187 17.9449L20.0212 17.9362Z" fill="#FEBF00"/>
</g>
</svg>
