<svg width="25" height="25" viewBox="0 0 25 25" fill="none" xmlns="http://www.w3.org/2000/svg">
<g id="facebook-circle">
<path id="Vector" d="M14.3902 22.6984V15.6684H16.7342L17.1802 12.7594H14.3902V10.8714C14.3862 10.8324 14.3842 10.7874 14.3842 10.7414C14.3842 9.93842 15.0352 9.28742 15.8382 9.28742C15.9062 9.28742 15.9722 9.29242 16.0372 9.30142L16.0292 9.30042H17.2972V6.82542C16.6282 6.71142 15.8492 6.64042 15.0562 6.62942H15.0452C14.9642 6.62242 14.8702 6.61942 14.7752 6.61942C12.8142 6.61942 11.2252 8.20842 11.2252 10.1694C11.2252 10.3014 11.2322 10.4324 11.2462 10.5604L11.2452 10.5444V12.7604H8.68921V15.6694H11.2452V22.6994C6.40621 21.9124 2.75621 17.7634 2.75621 12.7624C2.75621 7.20642 7.26021 2.70142 12.8172 2.70142C18.3742 2.70142 22.8782 7.20542 22.8782 12.7624C22.8782 17.7634 19.2282 21.9134 14.4472 22.6924L14.3892 22.7004L14.3902 22.6984Z" fill="white"/>
</g>
</svg>
