<svg width="25" height="25" viewBox="0 0 25 25" fill="none" xmlns="http://www.w3.org/2000/svg">
<g id="instagram-round">
<path id="Vector" d="M18.7273 3.69849H6.7273C5.0703 3.69849 3.7273 5.04149 3.7273 6.69849V18.6985C3.7273 20.3555 5.0703 21.6985 6.7273 21.6985H18.7273C20.3843 21.6985 21.7273 20.3555 21.7273 18.6985V6.69849C21.7273 5.04149 20.3843 3.69849 18.7273 3.69849ZM18.6913 15.1725C18.6803 15.6985 18.5793 16.1975 18.4023 16.6585L18.4123 16.6285C18.0933 17.4365 17.4653 18.0645 16.6783 18.3765L16.6573 18.3835C16.2263 18.5505 15.7263 18.6515 15.2053 18.6625H15.2003C14.5603 18.6915 14.3563 18.6985 12.7263 18.6985C11.0963 18.6985 10.8923 18.6915 10.2523 18.6625C9.7263 18.6515 9.2273 18.5505 8.7663 18.3735L8.7963 18.3835C7.9883 18.0645 7.3603 17.4365 7.0483 16.6495L7.0413 16.6285C6.8743 16.1975 6.7733 15.6975 6.7623 15.1765V15.1715C6.7333 14.5315 6.7263 14.3275 6.7263 12.6975C6.7263 11.0675 6.7333 10.8635 6.7623 10.2235C6.7733 9.69749 6.8743 9.19849 7.0513 8.73749L7.0413 8.76749C7.3593 7.95949 7.9883 7.33049 8.7753 7.01949L8.7963 7.01249C9.2273 6.84549 9.7273 6.74449 10.2483 6.73349H10.2533C10.8933 6.70449 11.0973 6.69749 12.7273 6.69749C14.3573 6.69749 14.5613 6.70449 15.2013 6.73349C15.7273 6.74449 16.2263 6.84549 16.6873 7.02249L16.6573 7.01249C17.4653 7.33049 18.0943 7.95949 18.4053 8.74649L18.4123 8.76749C18.5793 9.19849 18.6803 9.69849 18.6913 10.2195V10.2245C18.7203 10.8645 18.7273 11.0685 18.7273 12.6985C18.7273 14.3285 18.7203 14.5325 18.6913 15.1725ZM17.4043 9.15949C17.1983 8.63449 16.7903 8.22749 16.2793 8.02549L16.2663 8.02049C15.9353 7.89449 15.5533 7.81849 15.1543 7.81349H15.1523C14.5193 7.78449 14.3303 7.77849 12.7283 7.77849C11.1263 7.77849 10.9363 7.78449 10.3043 7.81349C9.9033 7.81849 9.5203 7.89349 9.1673 8.02749L9.1903 8.01949C8.6653 8.22549 8.2583 8.63349 8.0563 9.14449L8.0513 9.15749C7.9253 9.48849 7.8493 9.87049 7.8443 10.2695V10.2715C7.8153 10.9045 7.8093 11.0935 7.8093 12.6955C7.8093 14.2975 7.8153 14.4875 7.8443 15.1195C7.8493 15.5205 7.9243 15.9035 8.0583 16.2565L8.0503 16.2335C8.2563 16.7585 8.6643 17.1655 9.1753 17.3675L9.1883 17.3725C9.5193 17.4985 9.9013 17.5745 10.3003 17.5795H10.3023C10.9353 17.6085 11.1243 17.6145 12.7263 17.6145C14.3283 17.6145 14.5183 17.6085 15.1503 17.5795C15.5513 17.5745 15.9343 17.4995 16.2873 17.3655L16.2643 17.3735C16.7893 17.1675 17.1963 16.7595 17.3983 16.2485L17.4033 16.2355C17.5293 15.9045 17.6053 15.5225 17.6103 15.1235V15.1215C17.6393 14.4885 17.6453 14.2995 17.6453 12.6975C17.6453 11.0955 17.6393 10.9055 17.6103 10.2725C17.6053 9.87149 17.5303 9.48949 17.3963 9.13549L17.4043 9.15849V9.15949ZM12.7273 15.7795C11.0253 15.7795 9.6463 14.4005 9.6463 12.6985C9.6463 10.9965 11.0253 9.61749 12.7273 9.61749C14.4293 9.61749 15.8083 10.9965 15.8083 12.6985C15.8083 14.4005 14.4293 15.7795 12.7273 15.7795ZM15.9303 10.2155C15.5323 10.2155 15.2103 9.89349 15.2103 9.49549C15.2103 9.09749 15.5323 8.77549 15.9303 8.77549C16.3283 8.77549 16.6503 9.09749 16.6503 9.49549C16.6503 9.89349 16.3283 10.2155 15.9303 10.2155ZM14.7273 12.6985C14.7273 13.8035 13.8323 14.6985 12.7273 14.6985C11.6223 14.6985 10.7273 13.8035 10.7273 12.6985C10.7273 11.5935 11.6223 10.6985 12.7273 10.6985C13.8323 10.6985 14.7273 11.5935 14.7273 12.6985Z" fill="white"/>
</g>
</svg>
