<svg width="25" height="25" viewBox="0 0 25 25" fill="none" xmlns="http://www.w3.org/2000/svg">
<g id="linkedin-round">
<path id="Vector" d="M8.83985 7.79749C8.83985 6.94349 8.14685 6.25049 7.29285 6.25049C6.43885 6.25049 5.74585 6.94349 5.74585 7.79749C5.74585 8.65149 6.43885 9.34449 7.29285 9.34449C8.14585 9.34249 8.83785 8.65149 8.83985 7.79749ZM8.63085 19.1075V10.5195H5.95885V19.1075H8.63085ZM18.6268 14.3995C18.6268 12.0855 18.1248 10.3045 15.4238 10.3045C15.3928 10.3035 15.3568 10.3025 15.3198 10.3025C14.2928 10.3025 13.3938 10.8545 12.9048 11.6775L12.8978 11.6905H12.8608V10.5185H10.3018V19.1065H12.9708V14.8575C12.9708 13.7355 13.1838 12.6505 14.5748 12.6505C15.9408 12.6505 15.9608 13.9325 15.9608 14.9275V19.1065H18.6278L18.6268 14.3995ZM6.18185 3.69849H18.1818C19.8388 3.69849 21.1818 5.04149 21.1818 6.69849V18.6985C21.1818 20.3555 19.8388 21.6985 18.1818 21.6985H6.18185C4.52485 21.6985 3.18185 20.3555 3.18185 18.6985V6.69849C3.18185 5.04149 4.52485 3.69849 6.18185 3.69849Z" fill="white"/>
</g>
</svg>
