<svg width="37" height="38" viewBox="0 0 37 38" fill="none" xmlns="http://www.w3.org/2000/svg">
<g id="Frame" clip-path="url(#clip0_1_54)">
<g id="Group">
<path id="Vector" d="M19.5867 0.5C20.291 0.597145 20.9953 0.670003 21.6875 0.791434C25.9497 1.54431 29.5198 3.5722 32.3856 6.81441C34.9963 9.76518 36.5142 13.2381 36.9028 17.1603C37.3642 21.9326 36.1621 26.2798 33.272 30.117C30.5155 33.7721 26.8847 36.14 22.3918 37.075C16.8546 38.2286 11.7787 37.0871 7.26151 33.6628C3.63073 30.9063 1.37211 27.2391 0.400664 22.7947C0.230661 22.0297 0.182088 21.2525 0.0728004 20.4754C0.0606573 20.3418 0.0242281 20.2204 0.012085 20.0868C0.012085 19.3582 0.012085 18.6418 0.012085 17.9132C0.0363711 17.6582 0.0728004 17.391 0.0970866 17.136C0.534238 13.1531 2.05212 9.64375 4.73575 6.66869C7.58937 3.51149 11.1109 1.53216 15.3124 0.791434C16.0045 0.670003 16.7088 0.597145 17.4131 0.5C18.1417 0.5 18.8582 0.5 19.5867 0.5ZM18.506 1.87217C9.08297 1.86003 1.38425 9.5466 1.37211 18.9818C1.35997 28.4048 9.04654 36.1035 18.4817 36.1157C27.9048 36.1278 35.6035 28.4412 35.6156 19.0061C35.6278 9.58303 27.9412 1.88431 18.506 1.87217Z" fill="#FEBF00"/>
<path id="Vector_2" d="M24.5654 9.8987C24.1769 9.8987 23.849 9.8987 23.4968 9.8987C23.4968 13.3838 23.4968 16.8567 23.4968 20.3539C23.169 20.3539 22.8654 20.3539 22.5497 20.3539C22.5497 16.8688 22.5497 13.4081 22.5497 9.91084C22.2097 9.91084 21.9061 9.91084 21.5539 9.91084C21.4689 10.6516 21.3597 11.3923 21.2868 12.1452C21.0682 14.6588 20.8496 17.1846 20.6675 19.6982C20.6189 20.3782 20.6796 21.0703 20.7525 21.7504C20.7768 22.0054 20.8982 22.2847 21.0561 22.5032C21.7118 23.414 22.574 24.0333 23.6547 24.3368C23.8976 24.4097 23.934 24.519 23.9218 24.7497C23.7761 27.409 23.6426 30.0684 23.509 32.7156C23.4968 32.9706 23.4726 33.2256 23.4847 33.4684C23.4847 33.6749 23.424 33.7842 23.2054 33.8449C20.5218 34.6706 17.826 34.8163 15.0817 34.1849C14.8631 34.1363 14.766 34.0634 14.7538 33.8206C14.596 30.5541 14.4259 27.2755 14.2559 24.009C14.2438 23.8875 14.2559 23.7661 14.2559 23.6325C14.4381 23.5597 14.6081 23.4868 14.7902 23.4261C16.211 23.0132 17.146 22.0418 17.7774 20.7668C18.7003 18.8724 19.0039 16.8688 18.4939 14.8045C18.081 13.1166 17.1703 11.7445 15.7495 10.7366C13.9888 9.48584 12.0095 9.60727 10.3216 11.1009C8.62155 12.5945 7.78367 14.4888 7.8201 16.7474C7.84439 18.3017 8.16011 19.771 8.96155 21.1311C9.65371 22.3089 10.6009 23.1347 11.9245 23.499C12.228 23.584 12.3009 23.7175 12.2766 24.0333C12.1309 26.6319 11.9973 29.2305 11.8638 31.8291C11.8395 32.2177 11.8152 32.6184 11.7909 33.0191C6.80008 30.797 2.23428 24.8954 2.98715 17.4153C3.74002 9.93513 9.73871 4.17931 16.9639 3.48715C24.8204 2.72214 31.6813 7.83438 33.5756 14.9988C35.4942 22.2361 32.0091 29.2305 26.3383 32.4606C26.314 32.0113 26.2776 31.5984 26.2533 31.1734C26.144 29.0484 26.0469 26.9112 25.9255 24.7861C25.9133 24.5433 25.9619 24.434 26.2169 24.3611C27.2248 24.0818 28.0262 23.4868 28.6941 22.6975C29.0705 22.2482 29.192 21.7261 29.1798 21.1918C29.1555 19.6739 29.1434 18.156 29.0219 16.6503C28.8398 14.4645 28.5727 12.2909 28.3298 10.1173C28.3176 10.0566 28.3176 10.008 28.3055 9.93513C28.0626 9.93513 27.8441 9.93513 27.5769 9.93513C27.5769 13.4081 27.5769 16.881 27.5769 20.3782C27.2369 20.3782 26.9455 20.3782 26.6055 20.3782C26.6055 16.9053 26.6055 13.4323 26.6055 9.93513C26.229 9.93513 25.9012 9.93513 25.5247 9.93513C25.5247 13.3959 25.5247 16.8688 25.5247 20.3782C25.1969 20.3782 24.9054 20.3782 24.5654 20.3782C24.5654 16.881 24.5654 13.4081 24.5654 9.8987Z" fill="#FEBF00"/>
<path id="Vector_3" d="M8.80371 17.816C8.88871 16.5531 9.10729 15.4845 9.72659 14.5495C9.79944 14.4402 9.95731 14.3795 10.0666 14.3066C10.0909 14.4402 10.1637 14.5981 10.1273 14.7195C9.42301 17.391 9.98159 19.771 11.6573 21.9325C11.7302 22.0175 11.7302 22.1511 11.7666 22.2604C11.6452 22.2482 11.4873 22.2968 11.4023 22.2239C10.9652 21.9082 10.4916 21.6168 10.1516 21.2161C9.28943 20.2082 8.88871 18.9939 8.80371 17.816Z" fill="#FEBF00"/>
</g>
</g>
<defs>
<clipPath id="clip0_1_54">
<rect width="36.9879" height="37" fill="white" transform="translate(-6.10352e-05 0.5)"/>
</clipPath>
</defs>
</svg>
