<svg width="20" height="20" viewBox="0 0 20 20" fill="none" xmlns="http://www.w3.org/2000/svg">
<g id="sort 1">
<path id="Vector" d="M10 17.5002H9.99916C9.76916 17.5002 9.56167 17.4069 9.41083 17.2561L4.41083 12.2561C4.26 12.1052 4.16666 11.8969 4.16666 11.6669C4.16666 11.2069 4.54 10.8336 5 10.8336H15C15.46 10.8336 15.8333 11.2069 15.8333 11.6669C15.8333 11.8969 15.74 12.1052 15.5892 12.2561L10.5892 17.2561C10.4392 17.4069 10.2308 17.5002 10.0008 17.5002H10ZM7.01166 12.5002L10 15.4886L12.9883 12.5002H7.01166ZM15 9.16691H5C4.54 9.16691 4.16666 8.79358 4.16666 8.33358C4.16666 8.10358 4.26 7.89524 4.41083 7.74441L9.41083 2.74441C9.56167 2.59358 9.77 2.50024 10 2.50024C10.23 2.50024 10.4383 2.59358 10.5892 2.74441L15.5892 7.74441C15.74 7.89524 15.8333 8.10358 15.8333 8.33358C15.8333 8.79358 15.46 9.16691 15 9.16691ZM7.01166 7.50024H12.9883L10 4.51191L7.01166 7.50024Z" fill="white"/>
</g>
</svg>
