<svg width="25" height="25" viewBox="0 0 25 25" fill="none" xmlns="http://www.w3.org/2000/svg">
<g id="twitter-round-new-alt">
<path id="Vector" d="M18.5553 3.69849H6.07607C4.53877 3.69849 3.27276 4.95849 3.27276 6.48849V18.8185C3.27276 20.4385 4.53877 21.6985 6.07607 21.6985H18.4649C20.0022 21.6985 21.2682 20.4385 21.2682 18.9085V6.48849C21.3586 4.95849 20.0926 3.69849 18.5553 3.69849ZM14.3051 17.5585L14.1243 17.2885L11.6827 13.7785L8.42723 17.5585H7.61337L11.321 13.2385L8.24637 8.82849L7.61337 7.83849H10.4167L10.5975 8.10849L12.8583 11.4385L15.2094 8.64849L15.9329 7.83849H16.7467L13.22 11.9785L16.385 16.5685L17.1084 17.5585H14.3051Z" fill="white"/>
</g>
</svg>
