<svg width="49" height="49" viewBox="0 0 49 49" fill="none" xmlns="http://www.w3.org/2000/svg">
<path id="Vector" d="M24.4994 24.5914C24.4994 24.5914 27.6425 29.8451 33.8557 32.8899C40.0689 35.9356 46.9999 35.6189 46.9999 35.6189C46.9999 35.6189 43.8579 30.3643 37.6447 27.3195C31.4315 24.2747 24.4994 24.5914 24.4994 24.5914ZM24.4994 24.5914C24.4994 24.5914 17.5684 24.2747 11.3552 27.3195C5.14194 30.3643 1.99994 35.6189 1.99994 35.6189C1.99994 35.6189 8.93095 35.9356 15.1442 32.8899C21.3574 29.8451 24.4994 24.5914 24.4994 24.5914ZM24.4994 24.4086C24.4994 24.4086 21.3574 19.1549 15.1442 16.1101C8.93095 13.0644 1.99994 13.3819 1.99994 13.3819C1.99994 13.3819 5.14194 18.6357 11.3552 21.6813C17.5684 24.7261 24.4994 24.4086 24.4994 24.4086ZM24.4994 24.4086C24.4994 24.4086 31.4315 24.7261 37.6447 21.6813C43.8579 18.6357 46.9999 13.3819 46.9999 13.3819C46.9999 13.3819 40.0689 13.0644 33.8557 16.1101C27.6425 19.1549 24.4994 24.4086 24.4994 24.4086ZM28.2884 35.9725C28.2884 42.0629 24.4994 47 24.4994 47C24.4994 47 20.7104 42.0629 20.7104 35.9725C20.7104 29.882 24.4994 24.9441 24.4994 24.9441C24.4994 24.9441 28.2884 29.882 28.2884 35.9725ZM20.7104 13.0275C20.7104 6.93793 24.4994 2 24.4994 2C24.4994 2 28.2884 6.93793 28.2884 13.0275C28.2884 19.118 24.4994 24.055 24.4994 24.055C24.4994 24.055 20.7104 19.118 20.7104 13.0275Z" stroke="white" stroke-width="2" stroke-miterlimit="10"/>
</svg>
