<svg width="95" height="95" viewBox="0 0 95 95" fill="none" xmlns="http://www.w3.org/2000/svg">
<path id="Ellipse 10" d="M47.6314 2.81321C47.6314 1.51247 48.6867 0.451866 49.9858 0.516858C59.7816 1.00692 69.2025 4.54528 76.9154 10.6671C85.2446 17.2781 91.0917 26.5129 93.5057 36.8691C95.9197 47.2254 94.7584 58.0938 90.2108 67.7062C85.6632 77.3186 77.9969 85.1095 68.4589 89.8114C58.921 94.5133 48.0728 95.8495 37.679 93.6027C27.2851 91.3559 17.9574 85.6583 11.2131 77.4367C4.46876 69.2152 0.704788 58.9535 0.533458 48.321C0.374804 38.4751 3.3055 28.8478 8.88229 20.7796C9.62188 19.7096 11.1058 19.5184 12.1375 20.3105C13.1693 21.1027 13.3575 22.5778 12.6238 23.652C7.69138 30.8734 5.10174 39.4627 5.24325 48.2451C5.39745 57.8143 8.78503 67.0499 14.8549 74.4493C20.9248 81.8487 29.3198 86.9765 38.6742 88.9986C48.0286 91.0207 57.7921 89.8181 66.3762 85.5864C74.9603 81.3547 81.86 74.343 85.9529 65.6918C90.0457 57.0406 91.0908 47.2591 88.9183 37.9384C86.7457 28.6178 81.4833 20.3065 73.987 14.3566C67.1072 8.89597 58.7173 5.71928 49.9856 5.2338C48.6868 5.16159 47.6314 4.11395 47.6314 2.81321Z" fill="#FEBF00"/>
</svg>
